<svg xmlns="http://www.w3.org/2000/svg" xmlns:xlink="http://www.w3.org/1999/xlink" width="306.059" height="43.082" viewBox="-0.237 -0.228 229.545 32.312">
  <defs>
    <path id="n" d="M3.97-2.136c0-.781-.559-1.379-1.388-1.379-1.131 0-2.231 1.1-2.231 2.216C.35-.486.925.08 1.737.08c1.14 0 2.232-1.116 2.232-2.216ZM1.744-.143c-.278 0-.749-.144-.749-.877 0-.327.152-1.188.534-1.682.39-.502.83-.59 1.044-.59.327 0 .75.2.75.87 0 .318-.144 1.075-.447 1.553-.295.455-.733.726-1.132.726Z"/>
    <path id="m" d="M3.794-3.284a.542.542 0 0 0 .016-.12c0-.047-.032-.11-.104-.11-.096 0-.422.31-.55.533-.088-.175-.327-.534-.82-.534-.95 0-1.993 1.108-1.993 2.288C.343-.4.877.08 1.49.08c.399 0 .726-.231.965-.439C2.447-.335 2.2.67 2.168.805c-.12.462-.12.47-.622.478-.095 0-.2 0-.2.152 0 .047.04.111.12.111.104 0 .287-.016.391-.024h.422c.638 0 .782.024.845.024.032 0 .152 0 .152-.151 0-.112-.112-.112-.208-.112-.382 0-.382-.048-.382-.12 0-.007 0-.047.032-.167l1.076-4.28ZM2.614-.988c-.032.12-.032.143-.167.295-.415.486-.765.55-.933.55-.366 0-.55-.335-.55-.75 0-.374.216-1.227.39-1.578.232-.486.623-.82.99-.82.533 0 .669.621.669.677 0 .032-.016.087-.024.127L2.614-.988Z"/>
    <path id="h" d="M3.212-2.997c-.183.032-.35.176-.35.375 0 .143.095.247.27.247.12 0 .367-.088.367-.446 0-.495-.518-.694-1.012-.694-1.068 0-1.403.757-1.403 1.164 0 .08 0 .366.295.59.183.143.319.167.733.247.279.055.733.135.733.55 0 .207-.151.47-.374.621-.295.192-.686.2-.813.2-.191 0-.733-.032-.933-.351a.441.441 0 0 0 .463-.439c0-.239-.216-.294-.311-.294-.128 0-.455.095-.455.534 0 .47.495.773 1.236.773 1.387 0 1.681-.98 1.681-1.315 0-.718-.78-.87-1.075-.925-.383-.072-.694-.127-.694-.462 0-.144.136-.67.909-.67.303 0 .613.088.733.295Z"/>
    <path id="g" d="M3.885 2.905c0-.036 0-.06-.203-.263-1.195-1.207-1.865-3.18-1.865-5.619 0-2.32.562-4.316 1.949-5.726.12-.108.12-.132.12-.168 0-.071-.06-.095-.108-.095-.156 0-1.136.86-1.722 2.032-.61 1.207-.884 2.487-.884 3.957 0 1.064.167 2.487.789 3.766.705 1.435 1.685 2.212 1.817 2.212.048 0 .107-.024.107-.096Z"/>
    <path id="k" d="M3.371-2.977c0-.908-.12-2.39-.789-3.778C1.877-8.189.897-8.966.765-8.966c-.048 0-.107.024-.107.095 0 .036 0 .06.203.263 1.195 1.208 1.865 3.18 1.865 5.62 0 2.319-.562 4.315-1.949 5.726-.12.107-.12.131-.12.167 0 .072.06.096.108.096C.921 3 1.901 2.14 2.487.968c.61-1.22.884-2.51.884-3.945Z"/>
    <path id="l" d="M4.77-2.762h3.3c.167 0 .382 0 .382-.215 0-.227-.203-.227-.382-.227h-3.3v-3.3c0-.167 0-.382-.215-.382-.227 0-.227.203-.227.382v3.3h-3.3c-.167 0-.382 0-.382.215 0 .227.203.227.382.227h3.3v3.3c0 .167 0 .383.215.383.227 0 .227-.204.227-.383v-3.3Z"/>
    <path id="f" d="M8.07-3.873c.167 0 .382 0 .382-.216 0-.227-.203-.227-.382-.227H1.028c-.167 0-.382 0-.382.215 0 .228.203.228.382.228H8.07Zm0 2.223c.167 0 .382 0 .382-.215 0-.227-.203-.227-.382-.227H1.028c-.167 0-.382 0-.382.215 0 .227.203.227.382.227H8.07Z"/>
    <path id="i" d="M3.288-5.105c.012-.167.012-.454-.3-.454-.19 0-.346.155-.31.31v.156l.167 1.853-1.53-1.112c-.108-.06-.131-.083-.215-.083-.167 0-.323.167-.323.334 0 .192.12.24.24.3l1.697.812-1.65.801c-.191.096-.287.144-.287.323s.156.335.323.335c.084 0 .107 0 .406-.227l1.34-.969-.18 2.009c0 .25.215.31.31.31.144 0 .324-.083.324-.31l-.18-2.009 1.53 1.112c.108.06.132.084.216.084.167 0 .323-.168.323-.335 0-.18-.108-.24-.252-.31-.717-.36-.74-.36-1.685-.802l1.65-.8c.19-.096.287-.144.287-.324s-.156-.334-.323-.334c-.084 0-.108 0-.407.227L3.12-3.24l.168-1.865Z"/>
    <path id="d" d="M4.674-4.495c-.227 0-.334 0-.502.143a.635.635 0 0 0-.203.43c0 .24.18.383.407.383.287 0 .61-.239.61-.717 0-.574-.55-1.016-1.376-1.016-1.566 0-3.132 1.71-3.132 3.407C.478-.825 1.124.12 2.343.12c1.626 0 2.654-1.268 2.654-1.423 0-.072-.071-.132-.12-.132-.035 0-.047.012-.155.12C3.957-.3 2.822-.12 2.367-.12c-.825 0-1.088-.717-1.088-1.315 0-.418.203-1.578.634-2.39.31-.563.956-1.208 1.71-1.208.155 0 .812.024 1.051.538Z"/>
    <path id="e" d="M2.14-2.774c.323 0 1.136-.024 1.71-.239.908-.346.992-1.04.992-1.255 0-.526-.454-1.004-1.243-1.004-1.256 0-3.061 1.136-3.061 3.264C.538-.753 1.255.12 2.343.12c1.626 0 2.654-1.268 2.654-1.423 0-.072-.071-.132-.12-.132-.035 0-.047.012-.155.12C3.957-.3 2.822-.12 2.367-.12c-.681 0-1.04-.538-1.04-1.422 0-.168 0-.466.18-1.232h.633Zm-.574-.239c.514-1.84 1.65-2.02 2.033-2.02.526 0 .884.31.884.765 0 1.255-1.913 1.255-2.415 1.255h-.502Z"/>
    <path id="c" d="M3.383-1.71c0-.06-.048-.107-.12-.107-.107 0-.119.036-.179.239C2.774-.49 2.284-.12 1.89-.12c-.144 0-.31-.035-.31-.394 0-.323.143-.682.274-1.04l.837-2.224c.036-.095.12-.31.12-.538 0-.502-.36-.956-.945-.956-1.1 0-1.542 1.733-1.542 1.829 0 .048.048.108.131.108.108 0 .12-.048.168-.216.287-1.004.74-1.482 1.207-1.482.108 0 .311.012.311.394 0 .311-.155.706-.251.969l-.837 2.223C.98-1.255.91-1.064.91-.849c0 .538.37.969.944.969 1.1 0 1.53-1.746 1.53-1.83Zm-.095-5.75a.4.4 0 0 0-.407-.395c-.275 0-.586.263-.586.574 0 .3.251.395.395.395.323 0 .598-.311.598-.574Z"/>
    <path id="a" d="M.514 1.518c-.084.359-.131.455-.622.455-.143 0-.263 0-.263.227 0 .024.012.12.144.12.155 0 .323-.025.478-.025h.514c.251 0 .86.024 1.112.024.072 0 .215 0 .215-.215 0-.131-.084-.131-.287-.131-.55 0-.586-.084-.586-.18 0-.143.538-2.2.61-2.474.132.334.454.8 1.076.8 1.351 0 2.81-1.757 2.81-3.514 0-1.1-.622-1.877-1.519-1.877-.765 0-1.41.741-1.542.908a1.035 1.035 0 0 0-1.04-.908c-.347 0-.622.167-.849.621C.55-4.22.383-3.49.383-3.443s.047.108.131.108c.096 0 .108-.012.18-.287.179-.706.406-1.411.884-1.411.275 0 .37.191.37.55 0 .287-.035.406-.083.621l-1.35 5.38ZM2.582-3.73c.084-.335.419-.681.61-.849.132-.12.526-.454.98-.454.526 0 .765.526.765 1.148 0 .573-.334 1.924-.633 2.546-.299.646-.849 1.22-1.399 1.22-.813 0-.944-1.029-.944-1.077 0-.035.024-.131.036-.19l.585-2.344Z"/>
    <path id="b" d="M4.65-4.89c-.37.072-.561.335-.561.598 0 .287.227.383.394.383.335 0 .61-.287.61-.646 0-.382-.37-.717-.968-.717-.479 0-1.029.215-1.53.944-.084-.633-.563-.944-1.04-.944-.467 0-.706.358-.85.621a6.16 6.16 0 0 0-.382 1.208c0 .048.048.108.131.108.096 0 .108-.012.18-.287.179-.718.406-1.411.884-1.411.287 0 .37.203.37.55 0 .263-.119.73-.202 1.1l-.335 1.29c-.048.228-.18.766-.24.981-.083.311-.214.873-.214.933 0 .167.131.299.31.299a.461.461 0 0 0 .43-.323c.037-.096.48-1.901.55-2.176.06-.263.132-.514.192-.777.048-.168.096-.359.132-.514.035-.108.358-.694.657-.957.144-.131.454-.406.945-.406.19 0 .382.036.538.143Z"/>
    <path id="j" d="M4.113-.73c.263.718 1.004.85 1.458.85.909 0 1.447-.79 1.781-1.614.275-.694.718-2.272.718-2.977 0-.73-.37-.801-.478-.801-.287 0-.55.287-.55.526 0 .143.083.227.143.275.108.107.418.43.418 1.052 0 .406-.334 1.53-.585 2.092-.335.73-.777 1.207-1.4 1.207-.669 0-.884-.502-.884-1.052 0-.346.108-.765.156-.968l.502-2.008c.06-.24.167-.658.167-.706 0-.18-.143-.299-.323-.299-.346 0-.43.3-.502.586-.12.466-.621 2.487-.67 2.75-.047.203-.047.335-.047.598 0 .286-.383.74-.395.765-.131.131-.322.334-.693.334-.944 0-.944-.896-.944-1.1 0-.382.083-.908.621-2.33.144-.371.203-.527.203-.766 0-.502-.358-.956-.944-.956-1.1 0-1.542 1.733-1.542 1.829 0 .048.048.108.131.108.108 0 .12-.048.168-.216.299-1.052.765-1.482 1.207-1.482.12 0 .311.012.311.394 0 .06 0 .311-.203.837-.562 1.495-.682 1.985-.682 2.44C1.255-.109 2.283.12 2.893.12c.203 0 .741 0 1.22-.85Z"/>
  </defs>
  <g transform="matrix(1.13 0 0 1.13 -63.566 -61.02)">
    <use xlink:href="#a" x="56.413" y="70.852"/>
    <use xlink:href="#b" x="62.288" y="70.852"/>
    <use xlink:href="#c" x="67.889" y="70.852"/>
    <use xlink:href="#d" x="71.882" y="70.852"/>
    <use xlink:href="#e" x="76.92" y="70.852"/>
    <use xlink:href="#f" x="85.667" y="70.852"/>
    <use xlink:href="#g" x="99.288" y="62.765"/>
    <use xlink:href="#a" x="103.84" y="62.765"/>
    <use xlink:href="#h" x="109.715" y="64.558"/>
    <use xlink:href="#i" x="116.786" y="62.765"/>
    <use xlink:href="#j" x="125.42" y="62.765"/>
    <use xlink:href="#h" x="133.788" y="64.558"/>
    <use xlink:href="#k" x="138.202" y="62.765"/>
    <use xlink:href="#l" x="145.411" y="62.765"/>
    <use xlink:href="#g" x="157.172" y="62.765"/>
    <use xlink:href="#a" x="161.725" y="62.765"/>
    <use xlink:href="#m" x="167.6" y="64.558"/>
    <use xlink:href="#i" x="174.821" y="62.765"/>
    <use xlink:href="#j" x="183.456" y="62.765"/>
    <use xlink:href="#m" x="191.823" y="64.558"/>
    <use xlink:href="#k" x="196.388" y="62.765"/>
    <use xlink:href="#l" x="203.597" y="62.765"/>
    <use xlink:href="#g" x="215.359" y="62.765"/>
    <use xlink:href="#a" x="219.911" y="62.765"/>
    <use xlink:href="#n" x="225.786" y="64.558"/>
    <use xlink:href="#i" x="233.034" y="62.765"/>
    <use xlink:href="#j" x="241.668" y="62.765"/>
    <use xlink:href="#n" x="250.036" y="64.558"/>
    <use xlink:href="#k" x="254.627" y="62.765"/>
    <path d="M99.288 67.625H259.18v.478H99.288z"/>
    <use xlink:href="#j" x="145.479" y="79.053"/>
    <use xlink:href="#h" x="153.847" y="80.846"/>
    <use xlink:href="#l" x="160.917" y="79.053"/>
    <use xlink:href="#j" x="172.679" y="79.053"/>
    <use xlink:href="#m" x="181.046" y="80.846"/>
    <use xlink:href="#l" x="188.268" y="79.053"/>
    <use xlink:href="#j" x="200.029" y="79.053"/>
    <use xlink:href="#n" x="208.397" y="80.846"/>
  </g>
</svg>
